<svg width="45" height="45" viewBox="0 0 45 45" fill="none" xmlns="http://www.w3.org/2000/svg">
<circle cx="22.5" cy="22.5" r="22.5" transform="rotate(-180 22.5 22.5)" fill="white"/>
<path fill-rule="evenodd" clip-rule="evenodd" d="M19.4588 28.5502L14.6222 23.1057C14.3254 22.7716 14.3254 22.2299 14.6222 21.8958L19.4588 16.4514C19.7556 16.1173 20.2368 16.1173 20.5336 16.4514C20.8304 16.7855 20.8304 17.3271 20.5336 17.6612L16.9944 21.6453L29.8396 21.6453C30.2593 21.6453 30.5996 22.0283 30.5996 22.5008C30.5996 22.9733 30.2593 23.3563 29.8396 23.3563L16.9944 23.3563L20.5336 27.3403C20.8304 27.6744 20.8304 28.2161 20.5336 28.5502C20.2368 28.8843 19.7556 28.8843 19.4588 28.5502Z" fill="#FF4B00"/>
</svg>
