<svg width="36" height="36" viewBox="0 0 36 36" fill="none" xmlns="http://www.w3.org/2000/svg">
<path d="M17.997 11.8575C14.5897 11.8575 11.8398 14.6142 11.8398 18.0301C11.8398 21.4459 14.5897 24.2027 17.997 24.2027C21.4043 24.2027 24.1542 21.4459 24.1542 18.0301C24.1542 14.6142 21.4043 11.8575 17.997 11.8575ZM17.997 22.0418C15.7935 22.0418 13.9953 20.2391 13.9953 18.0301C13.9953 15.8211 15.7935 14.0183 17.997 14.0183C20.2005 14.0183 21.9987 15.8211 21.9987 18.0301C21.9987 20.2391 20.2005 22.0418 17.997 22.0418ZM24.4063 10.1661C23.6108 10.1661 22.9684 10.8102 22.9684 11.6077C22.9684 12.4052 23.6108 13.0493 24.4063 13.0493C25.2019 13.0493 25.8443 12.4082 25.8443 11.6077C25.8445 11.4183 25.8075 11.2307 25.7353 11.0557C25.6631 10.8807 25.5572 10.7217 25.4237 10.5878C25.2901 10.4539 25.1315 10.3477 24.9569 10.2754C24.7823 10.203 24.5952 10.1659 24.4063 10.1661ZM29.9991 18.0301C29.9991 16.3688 30.0141 14.7226 29.9211 13.0643C29.828 11.1382 29.3897 9.42877 27.9847 8.0203C26.5768 6.60882 24.8746 6.17244 22.9533 6.07914C21.2962 5.98585 19.6541 6.0009 18 6.0009C16.3429 6.0009 14.7008 5.98585 13.0467 6.07914C11.1254 6.17244 9.4202 6.61183 8.01525 8.0203C6.6073 9.43178 6.17201 11.1382 6.07895 13.0643C5.98588 14.7256 6.00089 16.3718 6.00089 18.0301C6.00089 19.6883 5.98588 21.3376 6.07895 22.9958C6.17201 24.9219 6.6103 26.6314 8.01525 28.0398C9.42321 29.4513 11.1254 29.8877 13.0467 29.981C14.7038 30.0743 16.3459 30.0593 18 30.0593C19.6571 30.0593 21.2992 30.0743 22.9533 29.981C24.8746 29.8877 26.5798 29.4483 27.9847 28.0398C29.3927 26.6284 29.828 24.9219 29.9211 22.9958C30.0171 21.3376 29.9991 19.6913 29.9991 18.0301ZM27.3573 25.1266C27.1382 25.6743 26.874 26.0836 26.4507 26.505C26.0274 26.9293 25.6221 27.1942 25.0758 27.4139C23.4967 28.0429 19.7472 27.9014 17.997 27.9014C16.2468 27.9014 12.4943 28.0429 10.9152 27.4169C10.3688 27.1972 9.96057 26.9323 9.54028 26.508C9.117 26.0836 8.85282 25.6773 8.63367 25.1296C8.00925 23.5436 8.15035 19.7846 8.15035 18.0301C8.15035 16.2755 8.00925 12.5136 8.63367 10.9305C8.85282 10.3828 9.117 9.9735 9.54028 9.55217C9.96357 9.13083 10.3688 8.86298 10.9152 8.64328C12.4943 8.0173 16.2468 8.15874 17.997 8.15874C19.7472 8.15874 23.4997 8.0173 25.0788 8.64328C25.6252 8.86298 26.0334 9.12782 26.4537 9.55217C26.877 9.97651 27.1412 10.3828 27.3603 10.9305C27.9847 12.5136 27.8437 16.2755 27.8437 18.0301C27.8437 19.7846 27.9847 23.5436 27.3573 25.1266Z" fill="white"/>
</svg>
