<svg width="36" height="36" viewBox="0 0 36 36" fill="none" xmlns="http://www.w3.org/2000/svg">
<path d="M14.448 29.5068C15.6 29.8556 16.764 30.0602 18 30.0602C21.1826 30.0602 24.2348 28.7927 26.4853 26.5366C28.7357 24.2805 30 21.2206 30 18.0301C30 16.4503 29.6896 14.8859 29.0866 13.4264C28.4835 11.9668 27.5996 10.6406 26.4853 9.52353C25.371 8.40643 24.0481 7.5203 22.5922 6.91573C21.1363 6.31117 19.5759 6 18 6C16.4241 6 14.8637 6.31117 13.4078 6.91573C11.9519 7.5203 10.629 8.40643 9.51472 9.52353C7.26428 11.7796 6 14.8395 6 18.0301C6 23.1429 9.204 27.5338 13.728 29.2662C13.62 28.3278 13.512 26.7759 13.728 25.7053L15.108 19.7624C15.108 19.7624 14.76 19.0647 14.76 17.9579C14.76 16.2977 15.792 15.0586 16.968 15.0586C18 15.0586 18.48 15.8165 18.48 16.791C18.48 17.8256 17.796 19.3053 17.448 20.7248C17.244 21.9038 18.072 22.9383 19.272 22.9383C21.408 22.9383 23.064 20.6526 23.064 17.4286C23.064 14.5414 21 12.5684 18.036 12.5684C14.652 12.5684 12.66 15.0947 12.66 17.7534C12.66 18.788 12.996 19.8346 13.548 20.5203C13.656 20.5925 13.656 20.6887 13.62 20.8692L13.272 22.1805C13.272 22.385 13.14 22.4571 12.936 22.3128C11.4 21.6391 10.512 19.4496 10.512 17.6812C10.512 13.8797 13.2 10.4271 18.384 10.4271C22.512 10.4271 25.728 13.3985 25.728 17.3444C25.728 21.4827 23.172 24.803 19.512 24.803C18.348 24.803 17.208 24.1774 16.8 23.4436L15.996 26.2947C15.72 27.3293 14.964 28.7128 14.448 29.5429V29.5068Z" fill="black"/>
</svg>
