<svg width="37" height="36" viewBox="0 0 37 36" fill="none" xmlns="http://www.w3.org/2000/svg">
<path d="M32.0729 9.59716C31.0765 10.0512 30.0024 10.3496 28.8894 10.4923C30.0282 9.80474 30.9082 8.71496 31.3224 7.40462C30.2482 8.0533 29.0576 8.50738 27.8024 8.76685C26.78 7.65112 25.3435 7.00244 23.7129 7.00244C20.6718 7.00244 18.1871 9.49337 18.1871 12.5681C18.1871 13.0092 18.2388 13.4374 18.3294 13.8395C13.7224 13.606 9.62 11.3875 6.88941 8.02736C6.41059 8.84469 6.13882 9.80474 6.13882 10.8167C6.13882 12.7498 7.10941 14.4623 8.61059 15.4353C7.69176 15.4353 6.83765 15.1758 6.08706 14.7866V14.8255C6.08706 17.524 8.00235 19.7814 10.5388 20.2874C9.72447 20.5108 8.86953 20.5419 8.04118 20.3782C8.39267 21.4842 9.08105 22.4519 10.0096 23.1454C10.9381 23.8389 12.06 24.2232 13.2176 24.2444C11.2553 25.8018 8.82282 26.6436 6.32 26.6315C5.88 26.6315 5.44 26.6056 5 26.5537C7.45882 28.1365 10.3835 29.0576 13.5153 29.0576C23.7129 29.0576 29.3165 20.5728 29.3165 13.2168C29.3165 12.9703 29.3165 12.7368 29.3035 12.4903C30.3906 11.7119 31.3223 10.7259 32.0729 9.59716Z" fill="white"/>
</svg>
