<svg width="30" height="23" viewBox="0 0 30 23" fill="none" xmlns="http://www.w3.org/2000/svg">
<path fill-rule="evenodd" clip-rule="evenodd" d="M17.248 11.4609C16.4072 12.1866 15.6499 13.017 15.0007 13.9454C14.3437 13.0155 13.5747 12.1644 12.7095 11.4078C11.7546 10.5099 10.7295 9.80298 9.69214 9.22491C10.5324 5.75649 12.3276 2.68905 14.6192 0.758049C14.8291 0.585859 15.1791 0.585859 15.3892 0.758049C17.6809 2.6915 19.4761 5.76633 20.3163 9.23474C19.2596 9.81921 18.2156 10.5449 17.248 11.4609ZM18.3822 12.5433C22.4002 8.80545 27.7983 8.51032 29.2752 8.50417C29.4941 8.50417 29.6673 8.67143 29.6673 8.89283C29.6572 10.2605 29.3058 15.0966 25.1502 18.6511C20.9186 22.6309 16.7318 22.6294 15.0604 22.6288C15.0401 22.6288 15.0202 22.6287 15.0007 22.6287C14.9657 22.6287 14.9295 22.6288 14.8921 22.6288C13.1891 22.6309 9.04206 22.6357 4.85366 18.6979C0.696832 15.1015 0.346716 10.2645 0.333984 8.89283C0.333984 8.67143 0.505859 8.50417 0.728661 8.50417C2.20551 8.51401 7.60621 8.80919 11.6202 12.589C13.3074 14.0462 14.3386 15.7002 15.0007 17.2564C15.6627 15.7017 16.6914 14.0487 18.3822 12.5433Z" fill="#2F2F2F"/>
</svg>
