<svg width="26" height="28" viewBox="0 0 26 28" fill="none" xmlns="http://www.w3.org/2000/svg">
<path d="M25.3573 3.92186C25.318 3.77223 25.2178 3.64511 25.0817 3.57086L20.3747 1.00361C19.4893 0.519859 18.5038 0.241984 17.5003 0.162109V0.689734C17.5003 3.62261 15.6081 5.75223 13.0003 5.75223C10.3926 5.75223 8.50033 3.62261 8.50033 0.689734V0.162109C7.49683 0.241984 6.51133 0.519859 5.62483 1.00361L0.918958 3.57086C0.782833 3.64511 0.682708 3.77223 0.643333 3.92186C0.603958 4.07148 0.628708 4.23123 0.710833 4.36286L3.52333 8.86286C3.62571 9.02711 3.80683 9.12723 4.00033 9.12723H5.13321C5.16133 10.1566 5.26258 11.159 5.36721 12.2097C5.51796 13.706 5.68783 15.4025 5.68783 17.5647C5.68783 20.7519 4.05208 25.2001 4.03521 25.244C3.98233 25.3869 3.98908 25.5455 4.05546 25.6827C4.12183 25.82 4.23996 25.9246 4.38396 25.973C4.52571 26.0202 7.90521 27.1272 13.0003 27.1272C18.0955 27.1272 21.475 26.0202 21.6156 25.973C21.7596 25.9257 21.8788 25.82 21.9441 25.6827C22.0105 25.5455 22.0172 25.3869 21.9643 25.244C21.9475 25.199 20.3117 20.7552 20.3117 17.5647C20.3117 15.4025 20.4816 13.706 20.6323 12.2097C20.7381 11.1579 20.8382 10.1566 20.8663 9.12723H22.0003C22.1938 9.12723 22.375 9.02711 22.4773 8.86286L25.2898 4.36286C25.372 4.23123 25.3967 4.07148 25.3573 3.92186Z" fill="#2F2F2F"/>
</svg>
