<svg width="26" height="28" viewBox="0 0 26 28" fill="none" xmlns="http://www.w3.org/2000/svg">
<path d="M25.9227 11.7783C25.8181 5.95978 20.0536 1.25391 12.9863 1.25391C5.8527 1.25391 0.0488281 6.04866 0.0488281 11.9414C0.0488281 12.2519 0.300828 12.5039 0.611328 12.5039H0.864453C1.08833 12.5039 1.29083 12.3712 1.38083 12.1653C1.87695 11.0223 3.2247 10.2539 4.7367 10.2539C6.24758 10.2539 7.59533 11.0223 8.09258 12.1653C8.18258 12.3712 8.38395 12.5039 8.60895 12.5039H9.11408C9.33795 12.5039 9.54045 12.3712 9.63045 12.1653C10.1266 11.0223 11.4743 10.2539 12.9863 10.2539C14.4983 10.2539 15.8461 11.0223 16.3422 12.1653C16.4322 12.3712 16.6347 12.5039 16.8586 12.5039H17.3637C17.5876 12.5039 17.7901 12.3712 17.8801 12.1653C18.3773 11.0223 19.7251 10.2539 21.236 10.2539C22.748 10.2539 24.0957 11.0223 24.5918 12.1653C24.6818 12.3712 24.8843 12.5039 25.1082 12.5039H25.3613C25.3703 12.505 25.3782 12.5039 25.3838 12.5039C25.6943 12.5039 25.9463 12.2519 25.9463 11.9414C25.9463 11.8852 25.9385 11.83 25.9227 11.7783ZM17.4863 10.2539C17.1758 10.2539 16.9238 10.0019 16.9238 9.69141C16.9238 6.33778 15.1205 3.50391 12.9863 3.50391C10.8522 3.50391 9.04883 6.33778 9.04883 9.69141C9.04883 10.0019 8.79683 10.2539 8.48633 10.2539C8.17583 10.2539 7.92383 10.0019 7.92383 9.69141C7.92383 5.65941 10.1952 2.37891 12.9863 2.37891C15.7775 2.37891 18.0488 5.65941 18.0488 9.69141C18.0488 10.0019 17.798 10.2539 17.4863 10.2539Z" fill="#2F2F2F"/>
<path d="M12.9863 2.37891C12.6758 2.37891 12.4238 2.12691 12.4238 1.81641V0.691406C12.4238 0.380906 12.6758 0.128906 12.9863 0.128906C13.2968 0.128906 13.5488 0.380906 13.5488 0.691406V1.81641C13.5488 2.12691 13.298 2.37891 12.9863 2.37891Z" fill="#2F2F2F"/>
<path d="M10.7363 27.1289C9.18495 27.1289 7.92383 25.8667 7.92383 24.3164C7.92383 22.8438 8.6202 22.2509 8.69895 22.1879C8.94083 21.9955 9.2952 22.0349 9.48983 22.2802C9.6822 22.5232 9.64058 22.8775 9.39758 23.0699C9.39758 23.0699 9.0477 23.4018 9.0477 24.3164C9.0477 25.2468 9.80483 26.0039 10.7352 26.0039C11.6656 26.0039 12.4227 25.2468 12.4227 24.3164V9.69141C12.4227 9.38091 12.6747 9.12891 12.9852 9.12891C13.2957 9.12891 13.5477 9.38091 13.5477 9.69141V24.3164C13.5488 25.8667 12.2877 27.1289 10.7363 27.1289Z" fill="#2F2F2F"/>
</svg>
