<svg width="26" height="27" viewBox="0 0 26 27" fill="none" xmlns="http://www.w3.org/2000/svg">
<path fill-rule="evenodd" clip-rule="evenodd" d="M19.7364 18.5039V26.6289H22.0114C22.5629 26.6289 23.0209 26.4614 23.3852 26.1266C23.7496 25.7918 23.9614 25.3683 24.0205 24.8562L26 5.94709H19.825V0.628906H18.0523V5.94709H11.9955L12.4977 10.2312C14.3493 10.6054 16.0186 11.5066 17.5057 12.9346C18.9928 14.3626 19.7364 16.2191 19.7364 18.5039ZM0.517045 16.155C0.172348 16.9921 0 17.8834 0 18.8289H17.9636C17.9636 17.8834 17.7913 16.9921 17.4466 16.155C17.1019 15.318 16.5602 14.5891 15.8216 13.9687C15.083 13.3482 14.1523 12.8558 13.0295 12.4914C11.9068 12.127 10.5576 11.9448 8.98182 11.9448C7.42575 11.9448 6.08144 12.127 4.94886 12.4914C3.81629 12.8558 2.88068 13.3482 2.14205 13.9687C1.40341 14.5891 0.861743 15.318 0.517045 16.155ZM0 22.7289V20.7198H17.9636V22.7289H0ZM0.265909 26.363C0.443182 26.5403 0.65 26.6289 0.886364 26.6289H17.0773C17.3136 26.6289 17.5205 26.5403 17.6977 26.363C17.875 26.1857 17.9636 25.9789 17.9636 25.7425V24.6198H0V25.7425C0 25.9789 0.0886363 26.1857 0.265909 26.363Z" fill="#2F2F2F"/>
</svg>
