<svg width="13" height="8" viewBox="0 0 13 8" fill="none" xmlns="http://www.w3.org/2000/svg">
<path d="M7.03825 6.75553C6.99067 6.80263 6.92852 6.82642 6.86637 6.82642C6.80423 6.82642 6.74208 6.80263 6.69498 6.75505L1.35421 1.41427C1.25953 1.3196 1.25953 1.16569 1.35421 1.07101C1.44889 0.976331 1.6028 0.976331 1.69748 1.07101L7.03825 6.75553ZM7.03825 6.75553L12.379 1.41476L7.03825 6.75553ZM6.86638 5.89706L1.86914 0.899357L1.86914 0.899349C1.67965 0.709867 1.37203 0.709867 1.18255 0.899349C0.99307 1.08883 0.99307 1.39645 1.18255 1.58593L6.52245 6.92582C6.52261 6.92599 6.52277 6.92615 6.52293 6.92631C6.6176 7.02169 6.74257 7.06918 6.86637 7.06918C6.99047 7.06918 7.11458 7.02155 7.20903 6.92807L7.20991 6.92719L12.5507 1.58642L12.5511 1.58598C12.74 1.39611 12.74 1.08965 12.5511 0.899788L12.5507 0.899349C12.3612 0.709867 12.0536 0.709867 11.8641 0.899349L6.86638 5.89706Z" fill="white" stroke="white" stroke-width="0.485525"/>
</svg>
