<svg width="23" height="22" viewBox="0 0 23 22" fill="none" xmlns="http://www.w3.org/2000/svg">
<path d="M7.85599 7.0455C7.85599 7.0455 3.51099 7.52675 0.612498 7.8485C0.351248 7.88012 0.120247 8.05475 0.0336223 8.32012C-0.0530027 8.5855 0.0336223 8.86187 0.226123 9.0365C2.37937 11.0014 5.61474 13.9439 5.61474 13.9439C5.61199 13.9439 4.72649 18.2242 4.13799 21.0801C4.08849 21.3386 4.18199 21.6122 4.40749 21.7759C4.63162 21.9395 4.92037 21.9422 5.14724 21.8144C7.68274 20.3734 11.4805 18.2064 11.4805 18.2064C11.4805 18.2064 15.2797 20.3734 17.8111 21.8157C18.0421 21.9422 18.3308 21.9395 18.5549 21.7759C18.7804 21.6122 18.8739 21.3386 18.8231 21.0815C18.2346 18.2242 17.3504 13.9439 17.3504 13.9439C17.3504 13.9439 20.5858 11.0014 22.7391 9.04062C22.9316 8.8605 23.0168 8.58412 22.9316 8.32012C22.8463 8.05612 22.6153 7.8815 22.3541 7.85125C19.4556 7.52675 15.1092 7.0455 15.1092 7.0455C15.1092 7.0455 13.3079 3.06075 12.1075 0.40425C11.9947 0.166375 11.7582 0 11.4805 0C11.2027 0 10.9649 0.16775 10.8576 0.40425C9.65587 3.06075 7.85599 7.0455 7.85599 7.0455Z" fill="#2F2F2F"/>
</svg>
